<svg xmlns="http://www.w3.org/2000/svg" width="940" height="264" viewBox="460 226 940 264"><title>Archibald Memorial Fountain — Apollo, Diana and Theseus</title><g stroke="none" stroke-width="1" stroke-linecap="round" stroke-linejoin="round"><path d="M460 453h940v37h-940Z" fill="#344b4c" stroke="none" stroke-width="1"/><path d="M462 455h936v33h-936Z" fill="#ab827a" stroke="none" stroke-width="1"/><path d="M463 456h934v5h-934Z" fill="#dfb9a0" stroke="none" stroke-width="1"/><path d="M1392 462h5v25h-5Z" fill="#775d5d" stroke="none" stroke-width="1"/><path d="M463 484h934v3h-934Z" fill="#775d5d" stroke="none" stroke-width="1"/><path d="M465 456h930v10h-930Z" fill="#356f77" stroke="none" stroke-width="1"/><path d="M474 460q8 -3 17 0t17 0" fill="none" stroke="#b5e3d7" stroke-width="1.5"/><path d="M521 460q8 -3 17 0t17 0" fill="none" stroke="#b5e3d7" stroke-width="1.5"/><path d="M568 460q8 -3 17 0t17 0" fill="none" stroke="#b5e3d7" stroke-width="1.5"/><path d="M615 460q8 -3 17 0t17 0" fill="none" stroke="#b5e3d7" stroke-width="1.5"/><path d="M662 460q8 -3 17 0t17 0" fill="none" stroke="#b5e3d7" stroke-width="1.5"/><path d="M709 460q8 -3 17 0t17 0" fill="none" stroke="#b5e3d7" stroke-width="1.5"/><path d="M756 460q8 -3 17 0t17 0" fill="none" stroke="#b5e3d7" stroke-width="1.5"/><path d="M803 460q8 -3 17 0t17 0" fill="none" stroke="#b5e3d7" stroke-width="1.5"/><path d="M850 460q8 -3 17 0t17 0" fill="none" stroke="#b5e3d7" stroke-width="1.5"/><path d="M897 460q8 -3 17 0t17 0" fill="none" stroke="#b5e3d7" stroke-width="1.5"/><path d="M944 460q8 -3 17 0t17 0" fill="none" stroke="#b5e3d7" stroke-width="1.5"/><path d="M991 460q8 -3 17 0t17 0" fill="none" stroke="#b5e3d7" stroke-width="1.5"/><path d="M1038 460q8 -3 17 0t17 0" fill="none" stroke="#b5e3d7" stroke-width="1.5"/><path d="M1085 460q8 -3 17 0t17 0" fill="none" stroke="#b5e3d7" stroke-width="1.5"/><path d="M1132 460q8 -3 17 0t17 0" fill="none" stroke="#b5e3d7" stroke-width="1.5"/><path d="M1179 460q8 -3 17 0t17 0" fill="none" stroke="#b5e3d7" stroke-width="1.5"/><path d="M1226 460q8 -3 17 0t17 0" fill="none" stroke="#b5e3d7" stroke-width="1.5"/><path d="M1273 460q8 -3 17 0t17 0" fill="none" stroke="#b5e3d7" stroke-width="1.5"/><path d="M1320 460q8 -3 17 0t17 0" fill="none" stroke="#b5e3d7" stroke-width="1.5"/><path d="M1367 460q8 -3 17 0t17 0" fill="none" stroke="#b5e3d7" stroke-width="1.5"/><path d="M463 468h934v5h-934Z" fill="#dfb9a0" stroke="none" stroke-width="1"/><path d="M464 484H1396" fill="none" stroke="#775d5d" stroke-width="2"/><path d="M482 475v8" fill="none" stroke="#775d5d" stroke-width="2"/><path d="M540 475v8" fill="none" stroke="#775d5d" stroke-width="2"/><path d="M598 475v8" fill="none" stroke="#775d5d" stroke-width="2"/><path d="M656 475v8" fill="none" stroke="#775d5d" stroke-width="2"/><path d="M714 475v8" fill="none" stroke="#775d5d" stroke-width="2"/><path d="M772 475v8" fill="none" stroke="#775d5d" stroke-width="2"/><path d="M830 475v8" fill="none" stroke="#775d5d" stroke-width="2"/><path d="M888 475v8" fill="none" stroke="#775d5d" stroke-width="2"/><path d="M946 475v8" fill="none" stroke="#775d5d" stroke-width="2"/><path d="M1004 475v8" fill="none" stroke="#775d5d" stroke-width="2"/><path d="M1062 475v8" fill="none" stroke="#775d5d" stroke-width="2"/><path d="M1120 475v8" fill="none" stroke="#775d5d" stroke-width="2"/><path d="M1178 475v8" fill="none" stroke="#775d5d" stroke-width="2"/><path d="M1236 475v8" fill="none" stroke="#775d5d" stroke-width="2"/><path d="M1294 475v8" fill="none" stroke="#775d5d" stroke-width="2"/><path d="M1352 475v8" fill="none" stroke="#775d5d" stroke-width="2"/><path d="M830 400h180v53h-180Z" fill="#344b4c" stroke="none" stroke-width="1"/><path d="M832 402h176v49h-176Z" fill="#ab827a" stroke="none" stroke-width="1"/><path d="M833 403h174v5h-174Z" fill="#dfb9a0" stroke="none" stroke-width="1"/><path d="M1002 409h5v41h-5Z" fill="#775d5d" stroke="none" stroke-width="1"/><path d="M833 447h174v3h-174Z" fill="#775d5d" stroke="none" stroke-width="1"/><path d="M875 300h90v100h-90Z" fill="#344b4c" stroke="none" stroke-width="1"/><path d="M877 302h86v96h-86Z" fill="#ab827a" stroke="none" stroke-width="1"/><path d="M878 303h84v5h-84Z" fill="#dfb9a0" stroke="none" stroke-width="1"/><path d="M957 309h5v88h-5Z" fill="#775d5d" stroke="none" stroke-width="1"/><path d="M878 394h84v3h-84Z" fill="#775d5d" stroke="none" stroke-width="1"/><path d="M836 409h168v7h-168Z" fill="#775d5d" stroke="none" stroke-width="1"/><path d="M838 441h164v7h-164Z" fill="#dfb9a0" stroke="none" stroke-width="1"/><path d="M882 336h76v7h-76Z" fill="#dfb9a0" stroke="none" stroke-width="1"/><path d="M882 391h76v5h-76Z" fill="#dfb9a0" stroke="none" stroke-width="1"/><path d="M886 347h7v38h-7Z" fill="#775d5d" stroke="none" stroke-width="1"/><path d="M888 349v33" fill="none" stroke="#dfb9a0" stroke-width="1.5"/><path d="M945 347h7v38h-7Z" fill="#775d5d" stroke="none" stroke-width="1"/><path d="M947 349v33" fill="none" stroke="#dfb9a0" stroke-width="1.5"/><path d="M898 349h41v35h-41Z" fill="#775d5d" stroke="none" stroke-width="1"/><path d="M918 353L933 368L918 381L903 368Z" fill="#bdac75" stroke="none" stroke-width="1"/><ellipse cx="918" cy="367" rx="8" ry="8" fill="#354c47" stroke="none"/><path d="M928 367L931 367" fill="none" stroke="#dfb9a0" stroke-width="1.5"/><path d="M925.0710678118655 374.0710678118655L927.1923881554251 376.19238815542514" fill="none" stroke="#dfb9a0" stroke-width="1.5"/><path d="M918 377L918 380" fill="none" stroke="#dfb9a0" stroke-width="1.5"/><path d="M910.9289321881346 374.0710678118655L908.8076118445749 376.19238815542514" fill="none" stroke="#dfb9a0" stroke-width="1.5"/><path d="M908 367L905 367" fill="none" stroke="#dfb9a0" stroke-width="1.5"/><path d="M910.9289321881345 359.9289321881345L908.8076118445749 357.80761184457486" fill="none" stroke="#dfb9a0" stroke-width="1.5"/><path d="M918 357L918 354" fill="none" stroke="#dfb9a0" stroke-width="1.5"/><path d="M925.0710678118654 359.9289321881345L927.1923881554251 357.80761184457486" fill="none" stroke="#dfb9a0" stroke-width="1.5"/><path d="M840 429l3 -11l6 4l8 -3l8 7l-3 7l-10 -2l-6 8l-8 -2Z" fill="#354c47" stroke="none" stroke-width="1"/><path d="M845 426l6 -2l10 4" fill="none" stroke="#789782" stroke-width="2"/><ellipse cx="859" cy="426" rx="1.5" ry="1.5" fill="#bdac75" stroke="none"/><path d="M966 429l3 -11l6 4l8 -3l8 7l-3 7l-10 -2l-6 8l-8 -2Z" fill="#354c47" stroke="none" stroke-width="1"/><path d="M971 426l6 -2l10 4" fill="none" stroke="#789782" stroke-width="2"/><ellipse cx="985" cy="426" rx="1.5" ry="1.5" fill="#bdac75" stroke="none"/><path d="M880 245h80v12h-80Z" fill="#354c47" stroke="none" stroke-width="1"/><path d="M901 250h38v50h-38Z" fill="#354c47" stroke="none" stroke-width="1"/><path d="M908 226h24v24h-24Z" fill="#354c47" stroke="none" stroke-width="1"/><ellipse cx="920" cy="237" rx="10" ry="11" fill="#789782" stroke="none"/><path d="M910 234q0 -8 10 -8q10 0 10 8l-6 -3l-4 2l-5 -2Z" fill="#354c47" stroke="none" stroke-width="1"/><path d="M913 230l5 -2l7 1" fill="none" stroke="#bdac75" stroke-width="2"/><path d="M921 235v6h3" fill="none" stroke="#354c47" stroke-width="1.5"/><path d="M915 235h2 M926 235h2" fill="none" stroke="#354c47" stroke-width="1.5"/><path d="M916 247L910 256L908 276L916 291L913 318L906 327H919L924 300L929 324H939L933 315L930 285L935 262L926 249Z" fill="#789782" stroke="none" stroke-width="1"/><path d="M920 255l-4 22l10 10 M927 291l-5 24" fill="none" stroke="#354c47" stroke-width="3"/><path d="M911 250L889 249L882 246L881 251L894 254L913 257Z" fill="#789782" stroke="none" stroke-width="1"/><path d="M929 251L949 247L958 248L958 253L940 256Z" fill="#789782" stroke="none" stroke-width="1"/><path d="M933 282l3 20l8 5" fill="none" stroke="#789782" stroke-width="4"/><path d="M941 302Q938 319 944 327H956Q962 319 958 302L954 305Q957 319 953 322H947Q943 319 945 305Z" fill="#bdac75" stroke="none" stroke-width="1"/><path d="M945 306H955 M946 308V321 M950 308V322 M954 308V321" fill="none" stroke="#354c47" stroke-width="1.3"/><path d="M620 431h120v22h-120Z" fill="#344b4c" stroke="none" stroke-width="1"/><path d="M622 433h116v18h-116Z" fill="#ab827a" stroke="none" stroke-width="1"/><path d="M623 434h114v5h-114Z" fill="#dfb9a0" stroke="none" stroke-width="1"/><path d="M732 440h5v10h-5Z" fill="#775d5d" stroke="none" stroke-width="1"/><path d="M623 447h114v3h-114Z" fill="#775d5d" stroke="none" stroke-width="1"/><path d="M640 385h32v46h-32Z" fill="#354c47" stroke="none" stroke-width="1"/><path d="M644 363h24v22h-24Z" fill="#354c47" stroke="none" stroke-width="1"/><path d="M670 406h58v18h-58Z" fill="#354c47" stroke="none" stroke-width="1"/><path d="M716 388h22v23h-22Z" fill="#354c47" stroke="none" stroke-width="1"/><path d="M677 424h10v7h-10Z" fill="#354c47" stroke="none" stroke-width="1"/><path d="M711 424h10v7h-10Z" fill="#354c47" stroke="none" stroke-width="1"/><path d="M654 396h39v10h-39Z" fill="#354c47" stroke="none" stroke-width="1"/><ellipse cx="656" cy="374" rx="10" ry="10" fill="#789782" stroke="none"/><path d="M647 369q8 -10 17 1l-3 3l-9 -2Z" fill="#354c47" stroke="none" stroke-width="1"/><path d="M650 386L662 386L668 409L663 423L666 430H656L654 414L649 429H642L648 410Z" fill="#789782" stroke="none" stroke-width="1"/><path d="M659 390l6 10l24 1" fill="none" stroke="#bdac75" stroke-width="3"/><path d="M669 397q17 3 0 8" fill="none" stroke="#bdac75" stroke-width="1.5"/><path d="M675 409L710 407L720 396L719 390L725 393L733 391L736 400L728 407L721 420L685 421Z" fill="#789782" stroke="none" stroke-width="1"/><path d="M684 424v5 M716 424v5" fill="none" stroke="#789782" stroke-width="5"/><ellipse cx="730" cy="397" rx="1.5" ry="1.5" fill="#bdac75" stroke="none"/><path d="M1146 431h120v22h-120Z" fill="#344b4c" stroke="none" stroke-width="1"/><path d="M1148 433h116v18h-116Z" fill="#ab827a" stroke="none" stroke-width="1"/><path d="M1149 434h114v5h-114Z" fill="#dfb9a0" stroke="none" stroke-width="1"/><path d="M1258 440h5v10h-5Z" fill="#775d5d" stroke="none" stroke-width="1"/><path d="M1149 447h114v3h-114Z" fill="#775d5d" stroke="none" stroke-width="1"/><path d="M1214 385h32v46h-32Z" fill="#354c47" stroke="none" stroke-width="1"/><path d="M1218 363h24v22h-24Z" fill="#354c47" stroke="none" stroke-width="1"/><path d="M1158 406h58v18h-58Z" fill="#354c47" stroke="none" stroke-width="1"/><path d="M1148 388h22v23h-22Z" fill="#354c47" stroke="none" stroke-width="1"/><path d="M1162 424h10v7h-10Z" fill="#354c47" stroke="none" stroke-width="1"/><path d="M1198 424h10v7h-10Z" fill="#354c47" stroke="none" stroke-width="1"/><path d="M1193 396h39v10h-39Z" fill="#354c47" stroke="none" stroke-width="1"/><ellipse cx="1230" cy="374" rx="10" ry="10" fill="#789782" stroke="none"/><path d="M1221 369q8 -10 17 1l-6 -2l-4 3Z" fill="#354c47" stroke="none" stroke-width="1"/><path d="M1222 387L1238 387L1241 401L1233 411L1243 429H1233L1227 415L1223 429H1216L1219 409Z" fill="#789782" stroke="none" stroke-width="1"/><path d="M1225 394l-12 8h-16" fill="none" stroke="#789782" stroke-width="5"/><path d="M1153 398L1151 390L1157 394L1164 390L1166 400L1177 409L1209 409L1202 422L1164 419Z" fill="#789782" stroke="none" stroke-width="1"/><path d="M1166 425v4 M1202 425v4" fill="none" stroke="#789782" stroke-width="5"/><ellipse cx="1157" cy="400" rx="1.5" ry="1.5" fill="#bdac75" stroke="none"/><path d="M505 479q5 -8 15 -6q11 -2 15 6l-7 4h-16Z" fill="#354c47" stroke="none" stroke-width="1"/><path d="M514 477q6 -4 12 0" fill="none" stroke="#789782" stroke-width="2"/><path d="M745 479q5 -8 15 -6q11 -2 15 6l-7 4h-16Z" fill="#354c47" stroke="none" stroke-width="1"/><path d="M754 477q6 -4 12 0" fill="none" stroke="#789782" stroke-width="2"/><path d="M1069 479q5 -8 15 -6q11 -2 15 6l-7 4h-16Z" fill="#354c47" stroke="none" stroke-width="1"/><path d="M1078 477q6 -4 12 0" fill="none" stroke="#789782" stroke-width="2"/><path d="M1301 479q5 -8 15 -6q11 -2 15 6l-7 4h-16Z" fill="#354c47" stroke="none" stroke-width="1"/><path d="M1310 477q6 -4 12 0" fill="none" stroke="#789782" stroke-width="2"/><path d="M903 438L905 424L913 419L917 424L920 421L928 427L933 438L924 438L919 431L914 439Z" fill="#354c47" stroke="none" stroke-width="1"/><ellipse cx="910" cy="422" rx="4" ry="4" fill="#789782" stroke="none"/><path d="M906 419l1 -3 M913 419l2 -3" fill="none" stroke="#bdac75" stroke-width="1.5"/></g></svg>
