<svg xmlns="http://www.w3.org/2000/svg" width="3760" height="1056" viewBox="0 0 940 264"><rect width="940" height="264" fill="#f8f4e8" fill-opacity=".3"/><rect x="0" y="227" width="940" height="37" fill="none" stroke="#c83846" stroke-width="1"/><rect x="370" y="174" width="180" height="53" fill="none" stroke="#c83846" stroke-width="1"/><rect x="415" y="74" width="90" height="100" fill="none" stroke="#c83846" stroke-width="1"/><rect x="441" y="24" width="38" height="50" fill="none" stroke="#c83846" stroke-width="1"/><rect x="448" y="0" width="24" height="24" fill="none" stroke="#c83846" stroke-width="1"/><rect x="420" y="19" width="80" height="12" fill="none" stroke="#c83846" stroke-width="1"/><rect x="160" y="205" width="120" height="22" fill="none" stroke="#c83846" stroke-width="1"/><rect x="180" y="159" width="32" height="46" fill="none" stroke="#c83846" stroke-width="1"/><rect x="184" y="137" width="24" height="22" fill="none" stroke="#c83846" stroke-width="1"/><rect x="210" y="180" width="58" height="18" fill="none" stroke="#c83846" stroke-width="1"/><rect x="256" y="162" width="22" height="23" fill="none" stroke="#c83846" stroke-width="1"/><rect x="217" y="198" width="10" height="7" fill="none" stroke="#c83846" stroke-width="1"/><rect x="251" y="198" width="10" height="7" fill="none" stroke="#c83846" stroke-width="1"/><rect x="194" y="170" width="39" height="10" fill="none" stroke="#c83846" stroke-width="1"/><rect x="686" y="205" width="120" height="22" fill="none" stroke="#c83846" stroke-width="1"/><rect x="754" y="159" width="32" height="46" fill="none" stroke="#c83846" stroke-width="1"/><rect x="758" y="137" width="24" height="22" fill="none" stroke="#c83846" stroke-width="1"/><rect x="698" y="180" width="58" height="18" fill="none" stroke="#c83846" stroke-width="1"/><rect x="688" y="162" width="22" height="23" fill="none" stroke="#c83846" stroke-width="1"/><rect x="702" y="198" width="10" height="7" fill="none" stroke="#c83846" stroke-width="1"/><rect x="738" y="198" width="10" height="7" fill="none" stroke="#c83846" stroke-width="1"/><rect x="733" y="170" width="39" height="10" fill="none" stroke="#c83846" stroke-width="1"/></svg>
